<svg width="550" height="200" xmlns="http://www.w3.org/2000/svg">
 <metadata id="metadata13">image/svg+xml</metadata>

 <g>
  <title>background</title>
  <rect fill="none" id="canvas_background" height="202" width="552" y="-1" x="-1"/>
 </g>
 <g>
  <title>Layer 1</title>
  <g stroke="null" id="Layer1000">
   <path stroke="null" fill="#ffffff" fill-rule="evenodd" d="m59.193196,35.535304l0,0c1.0559,0.5278 1.8479,1.4519 2.376,2.7718c0.5278,1.3198 0.7917,2.5605 0.7917,3.7221c0,1.4783 -0.5014,2.8247 -1.5046,4.0388c-1.0032,1.2144 -2.2966,1.8216 -3.8806,1.8216c-1.3726,0 -2.6133,-0.2903 -3.7222,-0.8711c-1.1086,-0.5808 -2.0855,-0.8711 -2.9302,-0.8711c-0.8447,0 -1.3198,0.3696 -1.4255,1.1086c-0.1055,0.7393 -0.1585,1.4256 -0.1585,2.0591c0,0.5281 0.0267,1.0823 0.0794,1.6631c0.0527,0.5808 0.0791,1.188 0.0791,1.8215c0.8447,6.9693 1.2937,13.9119 1.3464,20.8285c0.0528,6.9162 0.2903,13.9118 0.7127,20.9865c0.3169,7.3917 0.6599,14.7039 1.0295,21.9371c0.3696,7.2331 0.9241,14.5457 1.6631,21.937c0.1057,1.2674 0.1584,2.5608 0.1584,3.8806c0,1.3201 0,2.6663 0,4.0391c0,1.3726 0,2.7454 0,4.1182c0,1.3725 0.1058,2.7454 0.317,4.1182c0.1054,1.2671 0.3166,2.5078 0.6335,3.7222c0.3166,1.214 0.4751,2.4548 0.4751,3.7221c0,2.1118 -0.8711,3.4316 -2.6136,3.9597c-1.7421,0.5279 -3.5109,0.792 -5.3058,0.792c-2.8511,0 -4.4879,-0.6335 -4.9102,-1.9009c-0.4224,-1.2671 -0.6336,-3.1677 -0.6336,-5.7019c0,-1.9006 0.0791,-3.7749 0.2376,-5.6228c0.1584,-1.8479 0.2375,-3.7221 0.2375,-5.6231l0,-0.475c-0.5278,-15.8389 -1.2143,-31.546 -2.0591,-47.1212c-0.8447,-15.575 -1.4782,-31.2293 -1.9006,-46.9627c0,-0.9502 -0.0264,-1.8743 -0.0791,-2.7717c-0.053,-0.8978 -0.2112,-1.7161 -0.4753,-2.4551c-0.264,-0.7393 -0.7127,-1.3201 -1.3462,-1.7425c-0.6336,-0.4223 -1.584,-0.6335 -2.8511,-0.6335c-1.3728,0 -2.7454,0.2642 -4.1182,0.792c-1.3728,0.5281 -2.7981,0.792 -4.2766,0.792c-1.7949,0 -2.9302,-0.6599 -3.4053,-1.98c-0.4751,-1.3198 -0.7129,-2.719 -0.7129,-4.1973c0,-0.4223 0.0267,-1.0822 0.0794,-1.9797c0.0527,-0.8977 0.1848,-1.7952 0.396,-2.6926c0.2112,-0.8978 0.5278,-1.6898 0.9502,-2.376c0.4223,-0.6863 0.9504,-1.0296 1.584,-1.0296c0.8447,0 1.6103,0.1321 2.2966,0.396c0.6863,0.2639 1.3992,0.4488 2.1382,0.5545c2.3232,0.4224 4.6726,0.7126 7.0486,0.8711c2.3757,0.1584 4.6723,0.2375 6.8899,0.2375c1.9006,0 3.7485,-0.1054 5.5437,-0.3169c1.7949,-0.2112 3.6428,-0.3166 5.5434,-0.3166c0.9505,0 1.9009,0.0527 2.8511,0.1584c0.9505,0.1055 1.9006,0.3697 2.8511,0.792zm31.3614,-9.6619c1.3725,-0.2111 2.6926,-0.3169 3.9597,-0.3169c3.907,0 7.2859,0.8448 10.137,2.5345c2.8511,1.6894 5.2268,3.8803 7.1274,6.573c1.9009,2.6926 3.2998,5.7285 4.1976,9.1074c0.8974,3.3792 1.3461,6.8108 1.3461,10.2954c0,2.8511 -0.3166,5.7549 -0.9501,8.7115c-0.6336,2.9568 -1.6104,5.7812 -2.9305,8.4739c-1.3198,2.6926 -3.0093,5.0949 -5.0683,7.2068c-2.0591,2.1118 -4.4615,3.7485 -7.2068,4.9101c-1.056,0.4224 -2.1912,0.6863 -3.4053,0.792c-1.2144,0.1055 -2.3233,0.2903 -3.3262,0.5542c-1.0032,0.2642 -1.8215,0.7393 -2.4551,1.4255c-0.6335,0.6866 -0.9504,1.8216 -0.9504,3.4056c0,6.5466 0.1584,13.0671 0.4751,19.561c0.3169,6.4942 0.4753,12.9617 0.4753,19.4029c0,4.6463 -0.053,9.2395 -0.1584,13.7801c-0.1058,4.5405 -0.1585,9.081 -0.1585,13.6216c0,2.4284 0.0527,4.8571 0.1585,7.2859c0.1054,2.4287 0.1584,4.8044 0.1584,7.1274c0,1.0562 -0.1057,2.0063 -0.3169,2.8511c-0.2112,0.8447 -0.9502,1.2671 -2.2175,1.2671c-0.8447,0 -1.6367,-0.1319 -2.3757,-0.396c-0.7393,-0.2639 -1.4783,-0.5015 -2.2176,-0.7127c-1.7949,-0.4223 -3.0623,-0.792 -3.8012,-1.1086c-0.7393,-0.3169 -1.109,-1.584 -1.109,-3.8015c0,-1.4783 0.0794,-2.9302 0.2379,-4.3558c0.1581,-1.4255 0.2375,-2.8244 0.2375,-4.1972c0,-18.7957 -0.2905,-37.4593 -0.8711,-55.9911c-0.5808,-18.5318 -0.8713,-37.1953 -0.8713,-55.991c0,-2.6397 -0.1319,-5.2796 -0.396,-7.9195c-0.2639,-2.6399 -0.396,-5.2798 -0.396,-7.9194c0,-2.8511 0.792,-4.5669 2.376,-5.1477c1.584,-0.5808 3.59,-0.8711 6.0188,-0.8711c0.6335,0 1.3198,0 2.059,0c0.7393,0 1.4783,-0.053 2.2176,-0.1585zm5.5437,47.9923c1.7949,-0.8447 3.3262,-1.9536 4.5933,-3.3262c1.2671,-1.3728 2.2702,-2.9565 3.0092,-4.7517c0.7393,-1.7952 1.2671,-3.6431 1.584,-5.5437c0.3169,-1.9006 0.4751,-3.7485 0.4751,-5.5437c0,-2.323 -0.2112,-4.6196 -0.6335,-6.8899c-0.4224,-2.2703 -1.1877,-4.303 -2.2967,-6.0982c-1.1086,-1.7949 -2.5605,-3.2468 -4.3557,-4.3557c-1.7952,-1.1086 -4.0124,-1.6631 -6.6523,-1.6631c-0.4224,0 -0.792,0.2906 -1.1087,0.8714c-0.3169,0.5805 -0.5544,1.2934 -0.7129,2.1382c-0.1584,0.8447 -0.2639,1.6367 -0.3166,2.3757c-0.053,0.7392 -0.0794,1.3201 -0.0794,1.7424c0,2.0061 0.1321,3.9861 0.396,5.9397c0.2639,1.9534 0.396,3.9861 0.396,6.0979c0,0.8448 -0.0791,2.3494 -0.2375,4.5142c-0.1585,2.1645 -0.2112,4.3821 -0.1585,6.6523c0.0528,2.2703 0.2903,4.2503 0.7129,5.9398c0.4224,1.6894 1.2141,2.5341 2.3758,2.5341c0.8447,0 1.8479,-0.2111 3.0095,-0.6335zm62.4056,-26.2928c1.4785,8.9754 2.8247,18.6109 4.0391,28.9063c1.2143,10.2952 2.3493,20.617 3.4052,30.9651c1.0562,10.3482 2.1385,20.4325 3.2471,30.2528c1.1086,9.8201 2.2439,18.7427 3.4056,26.7678c0.3166,1.584 -0.1585,3.0623 -1.4256,4.4351c-1.584,-0.3169 -3.1943,-0.3696 -4.8311,-0.1584c-1.6367,0.2112 -3.2998,0.3166 -4.9892,0.3166c-1.2671,0 -2.1909,-0.4751 -2.7717,-1.4255c-0.5809,-0.9502 -0.9505,-2.1119 -1.109,-3.4844c-0.1581,-1.3728 -0.2111,-2.772 -0.1581,-4.1975c0.0527,-1.4256 0.0791,-2.6133 0.0791,-3.5637c0,-0.8448 -0.1055,-2.0328 -0.3167,-3.5638c-0.2114,-1.5312 -0.4226,-3.1413 -0.6338,-4.8311c-0.2112,-1.6894 -0.4224,-3.2998 -0.6335,-4.8308c-0.2112,-1.5309 -0.3167,-2.7189 -0.3167,-3.5637c0,-1.584 -0.0527,-2.7453 -0.1584,-3.4846c-0.1055,-0.7393 -0.4224,-1.2407 -0.9505,-1.5046c-0.5278,-0.2642 -1.3462,-0.3697 -2.4548,-0.3169c-1.1089,0.0527 -2.6135,0.0793 -4.5142,0.0793c-1.0559,0 -2.0063,0.1582 -2.8511,0.4751c-1.7951,0.739 -2.7983,1.9797 -3.0095,3.7222c-0.2112,1.7422 -0.3694,3.4052 -0.4751,4.9892c-0.2112,3.3789 -0.4487,6.6788 -0.7126,9.8995c-0.2642,3.2204 -0.396,6.4675 -0.396,9.741c0,0.6335 0,1.3198 0,2.059c0,0.739 -0.1057,1.4519 -0.3169,2.1382c-0.2112,0.6866 -0.5278,1.2671 -0.9502,1.7425c-0.4224,0.4751 -1.0559,0.7126 -1.9009,0.7126c-0.5278,0 -1.0559,-0.0527 -1.5837,-0.1585c-0.5281,-0.1054 -1.0559,-0.2111 -1.584,-0.3166c-0.8448,-0.2112 -1.6631,-0.3169 -2.4551,-0.3169c-0.792,0 -1.5046,-0.1054 -2.1382,-0.3166c-0.6335,-0.2112 -1.1616,-0.5808 -1.584,-1.1089c-0.4224,-0.5279 -0.6335,-1.3726 -0.6335,-2.5342c0,-1.1614 0.2375,-2.2439 0.7129,-3.2471c0.4751,-1.0029 0.8183,-2.0855 1.0295,-3.2468c0.9502,-4.0127 1.6101,-8.1309 1.9797,-12.3545c0.3697,-4.2236 0.7657,-8.3948 1.188,-12.513c1.584,-14.3606 3.2999,-28.6158 5.1478,-42.7652c1.8479,-14.1497 3.6694,-28.4048 5.4643,-42.7654c0,-0.7393 0.053,-1.98 0.1585,-3.7222c0.1057,-1.7424 0.2375,-3.511 0.396,-5.3062c0.1584,-1.7951 0.3696,-3.4582 0.6335,-4.9892c0.2639,-1.531 0.6599,-2.4551 1.188,-2.7717c0.739,-0.6336 2.0327,-1.0032 3.8806,-1.109c1.8477,-0.1054 3.2468,-0.1581 4.1973,-0.1581c2.0064,0 3.4583,0.3166 4.3557,0.9501c0.8975,0.6336 1.3462,2.0064 1.3462,4.1182c0,2.1118 -0.0527,4.1709 -0.1582,6.1773c-0.1057,2.0063 -0.053,4.0654 0.1582,6.1772zm-3.9597,73.9681l0,-1.2671c0,-7.2858 -0.6863,-14.4133 -2.0591,-21.3825c-1.3726,-6.9693 -2.3757,-14.0967 -3.0093,-21.3826l0,0c-1.1616,5.5964 -2.0854,10.2688 -2.772,14.0173c-0.6862,3.7485 -1.2143,7.075 -1.5837,9.9788c-0.3696,2.9038 -0.6335,5.7019 -0.792,8.3945c-0.1585,2.6927 -0.2375,5.7813 -0.2375,9.2659c0,2.2176 0.7126,3.6431 2.1381,4.2766c1.4256,0.6336 3.0359,0.9502 4.8308,0.9502c1.2674,0 2.4288,-0.3166 3.4847,-0.9502c-0.1055,-0.8447 -0.1055,-1.4782 0,-1.9009zm119.4264,-25.8174l0,0c0.6336,7.4971 1.1877,15.0206 1.6631,22.5706c0.4751,7.5498 1.0823,15.0735 1.8216,22.5706c0.2111,1.7952 0.475,3.5901 0.7917,5.3853c0.3169,1.7952 0.4753,3.5901 0.4753,5.3852c0,2.8511 -0.6602,4.4348 -1.98,4.7518c-1.3198,0.3169 -3.1413,0.475 -5.4643,0.475c-1.6897,0 -3.0096,-0.0527 -3.96,-0.1581c-0.9502,-0.1058 -1.6895,-0.3433 -2.2173,-0.7129c-0.5281,-0.3697 -0.8977,-1.0032 -1.1089,-1.9007c-0.2112,-0.8974 -0.3166,-2.1912 -0.3166,-3.8806c0,-3.3789 0.1584,-6.7051 0.4751,-9.9785c0.3169,-3.2735 0.4751,-6.5997 0.4751,-9.9785c0,-8.9757 -0.2903,-17.8983 -0.8711,-26.7682c-0.5808,-8.8699 -0.8711,-17.8452 -0.8711,-26.9263c0,-0.3169 0,-0.8183 0,-1.5046c0,-0.6866 0.1057,-1.188 0.3169,-1.5049c-0.3169,0.3169 -0.7129,1.4785 -1.188,3.4846c-0.4751,2.0064 -0.9241,4.2239 -1.3465,6.6524c-0.4223,2.4287 -0.8183,4.7783 -1.1877,7.0486c-0.3696,2.27 -0.6602,3.8276 -0.8713,4.6723c-1.0559,4.7518 -2.1119,9.4771 -3.1678,14.1761c-1.0559,4.6987 -2.1645,9.4768 -3.3261,14.3342c-0.9505,4.3294 -1.8743,8.6324 -2.7717,12.9087c-0.8978,4.2767 -2.0328,8.5796 -3.4056,12.909c-0.3166,1.0559 -0.5014,1.8479 -0.5544,2.3757c-0.0528,0.5281 -0.1582,0.9505 -0.3167,1.2671c-0.1584,0.3169 -0.4751,0.5808 -0.9504,0.792c-0.4751,0.2112 -1.2935,0.4224 -2.4551,0.6336c-0.739,0.1057 -1.531,0.1848 -2.3757,0.2378c-0.8448,0.0527 -1.6895,0.0791 -2.5342,0.0791c-0.4224,0 -0.9505,-0.0264 -1.584,-0.0791c-0.6336,-0.053 -1.1616,-0.1848 -1.584,-0.396c-0.739,-0.4224 -1.3725,-1.2938 -1.9006,-2.6136c-0.5279,-1.3198 -1.0032,-2.7717 -1.4256,-4.3557c-0.4223,-1.584 -0.792,-3.1413 -1.1086,-4.6726c-0.3169,-1.531 -0.5808,-2.7717 -0.792,-3.7222c-1.2671,-4.1182 -2.4815,-8.1833 -3.6431,-12.196c-1.1614,-4.0125 -2.2703,-8.1307 -3.3262,-12.3543c-0.5278,-2.3233 -1.4782,-5.4383 -2.8508,-9.3452c-1.3728,-3.907 -2.772,-7.8931 -4.1975,-11.9583c-1.4256,-4.0654 -2.6926,-7.9197 -3.8013,-11.5625c-1.1086,-3.6431 -1.6631,-6.3621 -1.6631,-8.1573c0,-0.4223 0.0528,-0.6862 0.1585,-0.792c-0.4224,0.5281 -0.6866,1.6104 -0.792,3.2471c-0.1057,1.6368 -0.1848,3.4583 -0.2376,5.4644c-0.053,2.0063 -0.0793,3.907 -0.0793,5.7021c0,1.7952 -0.0527,3.0096 -0.1585,3.6431c-0.3166,4.9629 -0.7126,9.8728 -1.1877,14.7303c-0.4754,4.8571 -0.7656,9.7673 -0.8711,14.7302c0,4.9629 -0.1848,9.8731 -0.5544,14.7302c-0.3697,4.8575 -0.8184,9.7147 -1.3465,14.5721c-0.1054,1.584 -0.3166,3.1414 -0.6335,4.6724c-0.3167,1.5312 -1.4783,2.2969 -3.4847,2.2969c-2.9565,0 -5.2268,-0.2906 -6.8108,-0.8714c-1.5837,-0.5805 -2.3757,-2.6133 -2.3757,-6.0979c0,-2.6399 0.2903,-5.2798 0.8711,-7.9194c0.5808,-2.6399 0.9768,-5.3326 1.188,-8.0782c0.4224,-5.7019 0.7126,-11.3511 0.8711,-16.9475c0.1584,-5.5967 0.4487,-11.2459 0.8711,-16.9478l2.5344,-33.5789c0.2112,-2.6399 0.5278,-5.2795 0.9502,-7.9194c0.4224,-2.6399 0.6335,-5.2799 0.6335,-7.9195c0,-1.0562 -0.0263,-2.0063 -0.079,-2.8511c-0.0528,-0.8447 0.0527,-1.5312 0.3166,-2.059c0.2642,-0.5281 0.7393,-0.9505 1.4255,-1.2671c0.6866,-0.3169 1.7688,-0.4754 3.2471,-0.4754c1.3728,0 2.5078,0.4754 3.4053,1.4255c0.8977,0.9505 1.6633,2.1119 2.2969,3.4847c0.6335,1.3728 1.135,2.7983 1.5046,4.2766c0.3697,1.4783 0.7127,2.6926 1.0296,3.6428c3.1677,10.137 6.5469,20.1421 10.1369,30.0152c3.5901,9.8728 7.1275,19.825 10.6121,29.8565c0.8447,2.5342 1.5313,5.0683 2.0591,7.6028c0.5281,2.5342 1.3201,5.0683 2.376,7.6028c0,0.1054 0.1054,0.3693 0.3166,0.7917c0.2112,0.4224 0.4224,0.6336 0.6336,0.6336c0.1057,0 0.2375,-0.2376 0.396,-0.7127c0.1584,-0.4751 0.2375,-0.7656 0.2375,-0.8711c0.3169,-1.0559 0.6335,-2.1384 0.9505,-3.247c0.3166,-1.1087 0.5808,-2.244 0.792,-3.4053c1.1613,-4.5405 2.2439,-9.0547 3.2468,-13.5425c1.0031,-4.4878 2.0327,-9.0547 3.0886,-13.7007c1.4785,-6.7581 3.0359,-13.4632 4.6726,-20.1155c1.6368,-6.6526 3.2471,-13.3577 4.8308,-20.1158c0.2112,-0.9502 0.449,-2.1382 0.7129,-3.5637c0.2639,-1.4256 0.6072,-2.8511 1.0296,-4.2766c0.4223,-1.4256 0.9765,-2.7454 1.6631,-3.9598c0.6862,-1.2143 1.5573,-1.9797 2.6132,-2.2966c0.2112,-0.1054 0.6339,-0.1584 1.2674,-0.1584c0.6335,0 1.0559,0 1.2671,0c0.4224,0 1.1877,0 2.2966,0c1.1086,0 1.8743,0.1584 2.2966,0.4753c1.1617,0.6336 1.7422,1.3462 1.7422,2.1382c0,0.792 0.053,1.7688 0.1585,2.9302c0.2112,7.9194 0.5808,15.7597 1.1086,23.521c0.5281,7.761 1.1616,15.6013 1.9009,23.521zm70.6422,-57.8125l0,0c0.3167,2.0063 0.5278,4.0124 0.6336,6.0188c0.1054,2.0063 0.1581,4.0127 0.1581,6.0188c0,5.2798 -0.2375,10.5066 -0.7126,15.6806c-0.4751,5.1741 -0.7126,10.4009 -0.7126,15.6807c0,4.5406 0.2112,9.0811 0.6335,13.6216c0.4224,4.5406 0.6336,9.0811 0.6336,13.6217c0,4.4348 -0.1321,8.8168 -0.396,13.1462c-0.2642,4.3293 -0.396,8.7114 -0.396,13.1465c0,3.2735 0.0791,6.5469 0.2375,9.8201c0.1585,3.2734 0.2376,6.5469 0.2376,9.8203c0,0.8447 0.0263,1.8216 0.0793,2.9302c0.0528,1.1086 -0.0266,2.1912 -0.2378,3.2471c-0.2112,1.0559 -0.6072,1.927 -1.1877,2.6132c-0.5808,0.6866 -1.4519,1.0296 -2.6136,1.0296c-0.6335,0 -1.267,-0.0791 -1.9006,-0.2376c-0.6335,-0.1584 -1.2671,-0.2902 -1.9006,-0.396c-1.4786,-0.4223 -2.5608,-0.7653 -3.2471,-1.0295c-0.6863,-0.2639 -1.0295,-1.4519 -1.0295,-3.5637c0,-1.6895 0.132,-3.3789 0.396,-5.0684c0.2639,-1.6897 0.396,-3.3791 0.396,-5.0686c0,-3.1677 -0.1058,-6.3091 -0.317,-9.4243c-0.2111,-3.115 -0.3166,-6.2037 -0.3166,-9.2656c-0.1057,-11.6156 -0.2642,-23.1251 -0.4754,-34.5292c-0.2111,-11.4043 -0.3166,-22.9138 -0.3166,-34.5291c0,-2.0063 0.0264,-4.039 0.0791,-6.0981c0.053,-2.0591 0.0794,-4.1446 0.0794,-6.2564c0,-1.1616 -0.1321,-2.0854 -0.396,-2.772c-0.2642,-0.6862 -1.0826,-1.0292 -2.4551,-1.0292c-4.1182,0 -8.1836,0.3957 -12.1961,1.1877c-4.0127,0.792 -8.1306,1.188 -12.3545,1.188l0,5.8603c0,3.3792 0.0527,6.7054 0.1585,9.9788c0.2111,10.137 0.3696,20.221 0.475,30.2525c0.1058,10.0312 0.2639,20.1682 0.4751,30.4109c0,4.5406 -0.0263,9.1866 -0.0791,13.9383c-0.0527,4.7517 0.1849,9.4507 0.713,14.0969c0.2111,1.5838 0.4487,3.1941 0.7126,4.8309c0.2639,1.6367 0.396,3.2998 0.396,4.9892c0,0.4224 -0.0527,1.0823 -0.1585,1.98c-0.1054,0.8975 -0.0527,1.5574 0.1585,1.9797c-0.2112,0.4224 -0.7657,0.7657 -1.6631,1.0296c-0.8975,0.2639 -1.9006,0.4751 -3.0095,0.6335c-1.1087,0.1585 -2.1646,0.2642 -3.1678,0.3169c-1.0031,0.0528 -1.7158,0.0791 -2.1381,0.0791l-0.6336,0c-0.845,-0.2112 -1.4519,-0.3696 -1.8215,-0.4751c-0.3697,-0.1057 -0.6072,-0.2639 -0.7129,-0.4751c-0.1055,-0.2111 -0.1582,-0.5544 -0.1582,-1.0295c0,-0.4754 -0.053,-1.1353 -0.1585,-1.98c-0.3169,-2.4287 -0.4753,-4.699 -0.4753,-6.8108c0,-2.7454 0.0793,-5.4907 0.2378,-8.2364c0.1582,-2.7453 0.2375,-5.4907 0.2375,-8.2363c0,-17.106 -0.0793,-34.0801 -0.2375,-50.9224c-0.1585,-16.8421 -0.2378,-33.7635 -0.2378,-50.764c0,-2.0064 0.6338,-3.6431 1.9009,-4.9102c1.2671,-1.2671 2.9038,-1.9006 4.9099,-1.9006c5.7021,0 11.3513,0.2375 16.9477,0.7126c5.5965,0.4751 11.2459,0.7129 16.9478,0.7129c1.1617,0 2.2967,-0.0793 3.4056,-0.2378c1.1086,-0.1582 2.1118,-0.1582 3.0092,0c0.8978,0.1585 1.6368,0.5808 2.2176,1.2674c0.5808,0.6863 1.0295,1.8213 1.3464,3.4053zm57.8123,67.9495c1.3729,1.6895 2.5606,4.0916 3.5638,7.2068c1.0031,3.115 1.7951,6.4676 2.376,10.0576c0.5805,3.5904 1.0029,7.1011 1.267,10.533c0.264,3.4319 0.396,6.2564 0.396,8.4739c0,2.8511 -0.3169,5.5964 -0.9504,8.2363c-0.6336,2.64 -1.8479,5.0684 -3.6431,7.2859c-0.8447,1.0559 -1.927,2.2176 -3.2468,3.4847c-1.3201,1.2671 -2.719,2.4287 -4.1975,3.4846c-1.4783,1.0559 -3.0093,1.9797 -4.5933,2.7717c-1.5837,0.792 -3.0623,1.2937 -4.4348,1.5049c-0.3169,0.5278 -1.5313,1.0029 -3.6431,1.4253c-2.1118,0.4223 -4.4348,0.7656 -6.9693,1.0295c-2.5341,0.2642 -4.9362,0.4754 -7.2065,0.6336c-2.2702,0.1584 -3.7752,0.2378 -4.5141,0.2378c-1.6895,0 -2.8248,-0.1585 -3.4056,-0.4754c-0.5808,-0.3166 -0.8711,-1.3725 -0.8711,-3.1677c0,-1.584 0.1585,-3.115 0.4751,-4.5932c0.3169,-1.4783 0.4754,-3.0096 0.4754,-4.5933c0,-12.7769 0.0527,-25.5274 0.1582,-38.2513c0.1057,-12.7241 0.1584,-25.5274 0.1584,-38.4097c0,-6.1245 -0.0264,-12.1961 -0.0791,-18.2149c-0.0527,-6.0188 -0.1321,-12.0906 -0.2375,-18.2148c-0.1058,-1.6898 -0.2642,-3.3529 -0.4754,-4.9893c-0.2112,-1.6367 -0.3166,-3.2998 -0.3166,-4.9895c0,-2.4285 0.3433,-4.4876 1.0295,-6.177c0.6863,-1.6898 2.4551,-2.5345 5.3059,-2.5345c2.4287,0 4.8575,0.2376 7.2862,0.7129c2.4284,0.4751 4.8572,0.7127 7.2859,0.7127c1.1616,0 2.2702,0 3.3261,0c1.056,0 1.98,0.1321 2.7718,0.396c0.792,0.2639 1.3991,0.792 1.8215,1.584c0.4224,0.792 0.6336,1.9797 0.6336,3.5637c0,0.6335 -0.0264,1.584 -0.0791,2.8511c-0.0528,1.2671 -0.2112,2.5078 -0.4751,3.7221c-0.2642,1.2144 -0.6866,2.2703 -1.2671,3.1678c-0.5808,0.8974 -1.3465,1.3464 -2.2969,1.3464c-2.1118,0 -4.1182,-0.449 -6.0188,-1.3464c-1.9007,-0.8975 -3.907,-1.3462 -6.0188,-1.3462c-1.5837,0 -2.4288,0.4487 -2.5342,1.3462c-0.1057,0.8974 -0.1585,1.98 -0.1585,3.247c0,3.2735 0.1849,6.4939 0.5545,9.6616c0.3696,3.168 0.5545,6.3358 0.5545,9.5035c0,4.8574 -0.0267,9.6882 -0.0794,14.493c-0.0527,4.8044 0.1321,9.6352 0.5544,14.4926c0.1055,0.6336 0.2639,1.531 0.4751,2.6927c0.2112,1.1613 0.792,1.7422 1.7425,1.7422c0.9502,0 1.927,-0.1849 2.9302,-0.5545c1.0031,-0.3694 2.0327,-0.5542 3.0886,-0.5542c0.6335,0 1.2407,0.0791 1.8212,0.2376c0.5809,0.1584 1.2408,0.2902 1.98,0.396c3.0623,0.5278 5.8604,1.0295 8.3949,1.5046c2.5341,0.4751 4.9628,2.0327 7.2858,4.6726zm-3.8012,27.8765c0,-5.7019 -0.6338,-9.9522 -1.9009,-12.7502c-1.2671,-2.7984 -2.6663,-4.7518 -4.1973,-5.8607c-1.531,-1.1086 -3.0095,-1.7158 -4.4348,-1.8212c-1.4255,-0.1058 -2.2439,-0.4224 -2.4551,-0.9505c-1.2671,0 -2.4814,-0.2639 -3.6431,-0.792c-1.1616,-0.5278 -2.323,-0.792 -3.4846,-0.792c-2.0061,0 -3.2204,0.8184 -3.6428,2.4551c-0.4224,1.6367 -0.6335,3.1944 -0.6335,4.6726c0,2.5342 0.2111,5.042 0.6335,7.5235c0.4224,2.4814 0.6863,4.9892 0.7917,7.5237c0.1057,2.2172 0.1848,4.4084 0.2378,6.573c0.0528,2.1648 0.0791,4.356 0.0791,6.5732c0,1.4783 -0.1321,2.9568 -0.396,4.4351c-0.2639,1.4783 -0.396,2.9565 -0.396,4.4348c0,0.8447 0.1848,1.6367 0.5545,2.376c0.3696,0.739 1.0295,1.1086 1.9797,1.1086c0.9505,0 2.0855,-0.1848 3.4055,-0.5544c1.3199,-0.3694 2.4021,-0.7126 3.2471,-1.0296c5.0684,-1.6894 8.6057,-4.1972 10.6121,-7.5234c2.0064,-3.3262 3.1677,-7.5764 3.4846,-12.7505l0.1585,-2.8511zm-7.7613,-23.6001l0,0l0,0l0,0.1584l0,-0.1584zm11.2456,22.4915l0,0l0,2.0591l0,-0.1585l0,-1.9006zm36.5882,22.8081c5.5965,-0.6335 11.4571,-0.9502 17.5813,-0.9502c0.5281,0 1.2671,0 2.2176,0c0.9504,0 1.927,0.0527 2.9302,0.1585c1.0031,0.1054 1.9006,0.2639 2.6926,0.4751c0.792,0.2111 1.3464,0.5278 1.6631,0.9501c0.1057,0.1058 0.2112,0.5018 0.3169,1.188c0.1054,0.6866 0.2375,1.4256 0.396,2.2176c0.1582,0.792 0.2903,1.5573 0.396,2.2966c0.1054,0.7393 0.1582,1.2144 0.1582,1.4256c0,0.8447 -0.4488,1.4255 -1.3462,1.7421c-0.8975,0.3169 -1.7158,0.4754 -2.4551,0.4754c-3.0623,0 -6.0979,0.0527 -9.1074,0.1582c-3.0096,0.1057 -6.0452,0.3169 -9.1075,0.6338c-1.3728,0.1054 -2.7453,0.2903 -4.1181,0.5542c-1.3729,0.2639 -2.7454,0.396 -4.1182,0.396c-1.0559,0 -1.7952,-0.1585 -2.2176,-0.4751c-0.1054,-1.1617 -0.1848,-2.3497 -0.2375,-3.5637c-0.0527,-1.2144 -0.0791,-2.4024 -0.0791,-3.564c0,-2.2173 0.2639,-3.4053 0.792,-3.5637c0.5278,-0.1585 1.7422,-0.3433 3.6428,-0.5545zm9.5035,-121.8022c6.2299,1.7952 11.0874,4.9629 14.572,9.5035c3.4846,4.5405 6.0188,9.7146 7.6025,15.5222c1.584,5.8076 2.5345,11.8794 2.8511,18.2149c0.3169,6.3357 0.4754,12.1433 0.4754,17.4231c0,4.4348 -0.1585,9.5825 -0.4754,15.4429c-0.3166,5.8606 -1.2934,11.4307 -2.9302,16.7102c-1.6367,5.2798 -4.1709,9.7146 -7.6028,13.305c-3.4316,3.5901 -8.2627,5.3852 -14.4926,5.3852c-4.2237,0 -7.7083,-1.0825 -10.4537,-3.247c-2.7456,-2.1649 -4.9892,-4.9629 -6.7317,-8.3948c-1.7421,-3.4317 -3.0359,-7.3123 -3.8806,-11.6417c-0.8447,-4.3293 -1.4255,-8.685 -1.7422,-13.0671c-0.3169,-4.3821 -0.4751,-8.5796 -0.4751,-12.5921c0,-4.0124 0,-7.4443 0,-10.2954c0,-2.7454 -0.053,-5.438 -0.1584,-8.0779c-0.1058,-2.6399 -0.1585,-5.3325 -0.1585,-8.0779c0,-2.9565 0.1321,-6.5469 0.396,-10.7705c0.2639,-4.2239 0.9505,-8.2891 2.0591,-12.1961c1.1086,-3.907 2.8247,-7.2331 5.1477,-9.9785c2.323,-2.7456 5.5965,-4.1182 9.8201,-4.1182c2.0064,0 4.0654,0.3167 6.1773,0.9502zm11.7209,79.3537c0.5278,-2.5342 0.8448,-5.0684 0.9505,-7.6028c0.1054,-2.5342 0.1582,-5.1211 0.1582,-7.761c0,-1.584 -0.0264,-3.9861 -0.0791,-7.2068c-0.0528,-3.2207 -0.2112,-6.7317 -0.4751,-10.533c-0.2642,-3.8013 -0.6602,-7.7083 -1.188,-11.721c-0.5281,-4.0124 -1.3201,-7.6555 -2.376,-10.929c-1.0559,-3.2731 -2.4021,-5.9657 -4.0388,-8.0778c-1.6367,-2.1119 -3.6695,-3.1678 -6.0982,-3.1678c-1.4783,0 -3.0093,0.5281 -4.5933,1.584c-1.267,0.8448 -2.2439,1.9798 -2.9301,3.4053c-0.6863,1.4255 -1.1617,2.9568 -1.4256,4.5933c-0.2639,1.6367 -0.4223,3.2998 -0.4751,4.9895c-0.0527,1.6895 -0.0793,3.2204 -0.0793,4.5933c-0.3167,5.3852 -0.7127,10.7178 -1.1877,15.9973c-0.4754,5.2798 -0.713,10.612 -0.713,15.9976c0,2.2173 0.1058,5.3059 0.317,9.2656c0.2111,3.9597 0.7389,7.8934 1.5837,11.8001c0.8447,3.907 2.1648,7.2861 3.96,10.1369c1.7949,2.8511 4.2763,4.2767 7.4443,4.2767c2.6396,0 4.6196,-0.6863 5.9395,-2.0591c1.32,-1.3726 2.3232,-3.0623 3.0095,-5.0684c0.6863,-2.0063 1.135,-4.1445 1.3462,-6.4148c0.2112,-2.2702 0.5281,-4.303 0.9504,-6.0981z" id="path2"/>
   <path stroke="null" fill="#ffffff" fill-rule="evenodd" d="m528.978996,61.986304l0,0c0,13.8328 -0.1057,27.5865 -0.3169,41.2608c-0.2112,13.6743 -0.3166,27.4807 -0.3166,41.419c0,2.0063 0.0791,3.9863 0.2375,5.9397c0.1582,1.9536 0.2376,3.8806 0.2376,5.7813c0,0.528 -0.0264,1.0295 -0.0794,1.5046c-0.0527,0.4754 -0.2903,0.9241 -0.7126,1.3464c-1.4783,0.3167 -3.0096,0.6599 -4.5933,1.0296c-1.584,0.3696 -3.115,0.5542 -4.5932,0.5542c-0.4224,0 -0.7393,-0.3167 -0.9505,-0.9502c-0.2112,-0.6336 -0.3696,-1.3465 -0.4751,-2.1382c-0.1057,-0.792 -0.1584,-1.584 -0.1584,-2.376c0,-0.792 0,-1.2934 0,-1.5046c-0.2112,-4.7517 -0.1321,-9.4244 0.2375,-14.0176c0.3696,-4.5933 0.5545,-9.0547 0.5545,-13.3841c0,-1.9006 0.0263,-3.5373 0.079,-4.9102c0.0528,-1.3725 -0.1054,-2.4814 -0.475,-3.3261c-0.3697,-0.8448 -1.0823,-1.4519 -2.1385,-1.8213c-1.0559,-0.3696 -2.7454,-0.5545 -5.0683,-0.5545c-3.0623,-0.1057 -5.1741,0.2903 -6.3358,1.188c-1.1613,0.8975 -1.7421,3.1414 -1.7421,6.7315c0,4.0127 0.1054,8.0515 0.3166,12.117c0.2112,4.0651 0.3696,8.1042 0.4754,12.1166c0,1.584 0.079,3.1417 0.2375,4.6727c0.1585,1.531 0.2375,3.0886 0.2375,4.6726c0,1.3725 -0.1054,2.3757 -0.3169,3.0093c-0.2111,0.6335 -0.5805,1.0559 -1.1086,1.2671c-0.5278,0.2111 -1.2144,0.2905 -2.0591,0.2375c-0.8447,-0.0527 -1.9006,-0.0791 -3.1677,-0.0791c-1.3728,0 -2.6399,-0.0527 -3.8015,-0.1584c-1.1614,-0.1055 -1.7422,-1.1087 -1.7422,-3.0093c0,-1.6895 0.1848,-3.3792 0.5544,-5.0686c0.3697,-1.6895 0.5542,-3.3789 0.5542,-5.0684c0,-5.8076 -0.2112,-11.5889 -0.6335,-17.3438c-0.4224,-5.7549 -0.6336,-11.5361 -0.6336,-17.3437c-0.1054,-7.1805 -0.1581,-14.3079 -0.1581,-21.3826c0,-7.075 -0.1058,-14.1497 -0.317,-21.2244c0,-3.3789 -0.1584,-6.7054 -0.475,-9.9786c-0.317,-3.2734 -0.4754,-6.5469 -0.4754,-9.8203c0,-0.739 0,-1.7158 0,-2.9302c0,-1.2143 0.0794,-2.4287 0.2378,-3.6431c0.1582,-1.2143 0.4224,-2.3757 0.7917,-3.4843c0.3697,-1.1089 0.9241,-1.8746 1.6631,-2.2969c0.2112,-0.2112 0.6602,-0.3694 1.3465,-0.4751c0.6862,-0.1055 1.3992,-0.1848 2.1381,-0.2375c0.7393,-0.0528 1.452,-0.1058 2.1385,-0.1585c0.6863,-0.0527 1.2407,-0.0791 1.6631,-0.0791c1.5837,0 2.6663,0.2639 3.2468,0.792c0.5808,0.5278 0.8714,1.6895 0.8714,3.4844c0,1.584 -0.0794,4.2766 -0.2379,8.0781c-0.1581,3.8013 -0.3166,8.0779 -0.4751,12.8296c-0.1584,4.7517 -0.2902,9.7146 -0.396,14.8887c-0.1054,5.1741 -0.079,9.8992 0.0794,14.1758c0.1582,4.2766 0.4487,7.7876 0.8711,10.533c0.4224,2.7453 1.1086,4.1182 2.0591,4.1182c1.3725,0 2.6926,0.0527 3.9597,0.1584c1.2671,0.1055 2.5342,0.1585 3.8013,0.1585c1.7951,0 2.9301,-0.2906 3.4055,-0.8714c0.4751,-0.5805 0.7126,-1.7158 0.7126,-3.4053c0,-1.3728 -0.1054,-2.6662 -0.3166,-3.8806c-0.2112,-1.2144 -0.3169,-2.4551 -0.3169,-3.7222c0,-7.8139 0.1585,-15.5749 0.4751,-23.2835c0.3169,-7.7082 0.4754,-15.4692 0.4754,-23.2832c0,-0.7392 0,-1.6367 0,-2.6926c0,-1.0559 0.079,-2.0855 0.2375,-3.0886c0.1585,-1.0032 0.5014,-1.8743 1.0295,-2.6136c0.5279,-0.739 1.3729,-1.1086 2.5342,-1.1086c0.8447,0 1.9006,0.2639 3.1677,0.792c1.0562,0.4224 1.8479,0.7653 2.376,1.0295c0.5278,0.2639 0.8975,0.6072 1.1087,1.0296c0.2111,0.4223 0.3169,0.9502 0.3169,1.5837c0,0.6335 0,1.5313 0,2.6926c0.1054,4.5406 0.1584,9.1341 0.1584,13.7801l0,1.7422z" id="path4"/>
  </g>
 </g>
</svg>